<svg width="716" height="435" viewBox="0 0 716 435" fill="none" xmlns="http://www.w3.org/2000/svg">
<g opacity="0.1" filter="url(#filter0_f_110_383)">
<path d="M102.875 145.504C105.03 145.504 107.104 145.777 109.047 146.279C111.125 140.907 117.434 137 124.896 137C134.049 137 141.47 142.88 141.47 150.133C141.47 151.181 141.314 152.2 141.022 153.177C148.833 153.613 155 158.772 155 165.073C155 171.66 148.261 177 139.948 177H102.875C91.8983 177 83 169.949 83 161.252C83 152.555 91.8983 145.504 102.875 145.504V145.504Z" fill="url(#paint0_linear_110_383)"/>
</g>
<g opacity="0.2" filter="url(#filter1_f_110_383)">
<path d="M265.789 40.0762C261.971 40.0762 258.297 40.5622 254.855 41.4576C251.173 31.8852 239.995 24.9246 226.776 24.9246C210.559 24.9246 197.413 35.4008 197.413 48.324C197.413 50.1912 197.689 52.007 198.207 53.7478C184.367 54.5252 173.442 63.7172 173.442 74.9438C173.442 86.68 185.382 96.1942 200.11 96.1942H265.789C285.235 96.194 301 83.6316 301 68.1352C301 52.6388 285.235 40.0762 265.789 40.0762V40.0762Z" fill="url(#paint1_linear_110_383)"/>
<path d="M230.577 68.1364C230.577 69.2746 230.662 70.3962 230.829 71.4988C229.504 71.6476 228.15 71.7232 226.775 71.7232C210.558 71.7232 197.413 61.2462 197.413 48.323C197.413 35.4022 210.558 24.9252 226.775 24.9252C239.994 24.9252 251.174 31.8862 254.854 41.4588C240.761 45.1212 230.577 55.6808 230.577 68.1364V68.1364Z" fill="url(#paint2_linear_110_383)"/>
<path d="M173.648 77.5888C175.282 88.0766 186.506 96.194 200.109 96.194H265.789C281.072 96.194 294.079 88.4338 298.949 77.5888H173.648Z" fill="url(#paint3_linear_110_383)"/>
<path d="M220.207 80.2772C232.163 80.2772 241.856 72.5537 241.856 63.0262C241.856 53.4987 232.163 45.7752 220.207 45.7752C208.251 45.7752 198.559 53.4987 198.559 63.0262C198.559 72.5537 208.251 80.2772 220.207 80.2772Z" fill="url(#paint4_linear_110_383)"/>
</g>
<g opacity="0.4">
<path d="M575.789 62.2904C571.971 62.2904 568.297 62.7669 564.855 63.6447C561.173 54.26 549.995 47.4359 536.776 47.4359C520.559 47.4359 507.413 57.7067 507.413 70.3765C507.413 72.2071 507.689 73.9873 508.207 75.694C494.367 76.4561 483.442 85.4679 483.442 96.4743C483.442 107.98 495.382 117.308 510.11 117.308H575.789C595.235 117.308 611 104.992 611 89.7992C611 74.6067 595.235 62.2904 575.789 62.2904V62.2904Z" fill="url(#paint5_linear_110_383)"/>
<path d="M540.577 89.8003C540.577 90.9162 540.662 92.0158 540.829 93.0968C539.504 93.2427 538.15 93.3168 536.775 93.3168C520.558 93.3168 507.413 83.0452 507.413 70.3754C507.413 57.708 520.558 47.4364 536.775 47.4364C549.994 47.4364 561.174 54.2609 564.854 63.6458C550.761 67.2364 540.577 77.589 540.577 89.8003V89.8003Z" fill="url(#paint6_linear_110_383)"/>
<path d="M483.648 99.0674C485.282 109.35 496.506 117.308 510.109 117.308H575.789C591.072 117.308 604.079 109.7 608.949 99.0674H483.648Z" fill="url(#paint7_linear_110_383)"/>
<path d="M530.207 101.703C542.163 101.703 551.856 94.131 551.856 84.7904C551.856 75.4497 542.163 67.8776 530.207 67.8776C518.251 67.8776 508.559 75.4497 508.559 84.7904C508.559 94.131 518.251 101.703 530.207 101.703Z" fill="url(#paint8_linear_110_383)"/>
</g>
<g filter="url(#filter2_f_110_383)">
<path d="M482.5 123.5C482.5 123.698 482.392 123.966 482.017 124.305C481.644 124.641 481.06 124.997 480.246 125.361C478.622 126.089 476.196 126.802 473.032 127.488C466.711 128.857 457.545 130.094 446.196 131.134C423.505 133.213 392.146 134.5 357.5 134.5C322.854 134.5 291.495 133.213 268.804 131.134C257.455 130.094 248.289 128.857 241.968 127.488C238.804 126.802 236.378 126.089 234.754 125.361C233.94 124.997 233.356 124.641 232.983 124.305C232.608 123.966 232.5 123.698 232.5 123.5C232.5 123.302 232.608 123.034 232.983 122.695C233.356 122.359 233.94 122.003 234.754 121.639C236.378 120.911 238.804 120.198 241.968 119.512C248.289 118.143 257.455 116.906 268.804 115.866C291.495 113.787 322.854 112.5 357.5 112.5C392.146 112.5 423.505 113.787 446.196 115.866C457.545 116.906 466.711 118.143 473.032 119.512C476.196 120.198 478.622 120.911 480.246 121.639C481.06 122.003 481.644 122.359 482.017 122.695C482.392 123.034 482.5 123.302 482.5 123.5Z" stroke="black"/>
</g>
<g filter="url(#filter3_d_110_383)">
<g clip-path="url(#clip0_110_383)">
<rect x="273" y="40" width="169" height="169" rx="84.5" fill="url(#paint9_radial_110_383)"/>
<rect x="273" y="40" width="169" height="169" rx="84.5" fill="#FFF584"/>
<circle cx="367.5" cy="109.5" r="84.5" fill="url(#paint10_radial_110_383)"/>
</g>
</g>
<path d="M324.719 299H327.156V287.719H334.312V285.469H327.156V253.75H323.688C309.156 273.094 305.75 278.188 301.188 285.438V287.719H324.719V299ZM303.969 285.469V285.281C307.938 278.906 310.594 274.938 324.531 256.375H324.719V285.469H303.969ZM357.969 299.75C367.781 299.75 373.781 290.844 373.781 276.5V276.406C373.781 262.156 367.781 253.156 357.969 253.156C348.156 253.156 342.219 262.094 342.219 276.406V276.5C342.219 290.781 348.156 299.75 357.969 299.75ZM357.969 297.531C349.656 297.531 344.688 289.375 344.688 276.5V276.406C344.688 263.562 349.656 255.406 357.969 255.406C366.312 255.406 371.281 263.438 371.281 276.406V276.5C371.281 289.375 366.312 297.531 357.969 297.531ZM405.219 299H407.656V287.719H414.812V285.469H407.656V253.75H404.188C389.656 273.094 386.25 278.188 381.688 285.438V287.719H405.219V299ZM384.469 285.469V285.281C388.438 278.906 391.094 274.938 405.031 256.375H405.219V285.469H384.469Z" fill="white"/>
<path d="M301.082 328H303.168V314.887H303.355L312.531 328H314.582V311.09H312.496V324.25H312.309L303.133 311.09H301.082V328ZM323.828 328.223C327.426 328.223 329.652 325.738 329.652 321.695V321.672C329.652 317.617 327.426 315.145 323.828 315.145C320.23 315.145 318.004 317.617 318.004 321.672V321.695C318.004 325.738 320.23 328.223 323.828 328.223ZM323.828 326.418C321.438 326.418 320.09 324.672 320.09 321.695V321.672C320.09 318.684 321.438 316.949 323.828 316.949C326.219 316.949 327.566 318.684 327.566 321.672V321.695C327.566 324.672 326.219 326.418 323.828 326.418ZM337.305 328.094C337.703 328.094 338.09 328.047 338.488 327.977V326.242C338.113 326.277 337.914 326.289 337.551 326.289C336.238 326.289 335.723 325.691 335.723 324.203V317.055H338.488V315.367H335.723V312.098H333.613V315.367H331.621V317.055H333.613V324.719C333.613 327.133 334.703 328.094 337.305 328.094ZM348.543 328H350.652V320.676H358.141V318.801H350.652V312.988H358.809V311.09H348.543V328ZM367.211 328.223C370.809 328.223 373.035 325.738 373.035 321.695V321.672C373.035 317.617 370.809 315.145 367.211 315.145C363.613 315.145 361.387 317.617 361.387 321.672V321.695C361.387 325.738 363.613 328.223 367.211 328.223ZM367.211 326.418C364.82 326.418 363.473 324.672 363.473 321.695V321.672C363.473 318.684 364.82 316.949 367.211 316.949C369.602 316.949 370.949 318.684 370.949 321.672V321.695C370.949 324.672 369.602 326.418 367.211 326.418ZM380.43 328.223C382.281 328.223 383.559 327.461 384.18 326.113H384.367V328H386.406V315.367H384.367V322.844C384.367 325.059 383.184 326.418 380.957 326.418C378.941 326.418 378.121 325.328 378.121 323.055V315.367H376.082V323.547C376.082 326.535 377.559 328.223 380.43 328.223ZM390.215 328H392.254V320.523C392.254 318.309 393.531 316.949 395.547 316.949C397.562 316.949 398.5 318.039 398.5 320.312V328H400.539V319.82C400.539 316.82 398.957 315.145 396.121 315.145C394.258 315.145 393.074 315.93 392.441 317.266H392.254V315.367H390.215V328ZM408.895 328.223C410.652 328.223 412.059 327.391 412.832 325.984H413.02V328H415.059V310.352H413.02V317.359H412.832C412.141 316.012 410.629 315.145 408.895 315.145C405.684 315.145 403.598 317.711 403.598 321.672V321.695C403.598 325.633 405.695 328.223 408.895 328.223ZM409.363 326.418C407.055 326.418 405.684 324.637 405.684 321.695V321.672C405.684 318.73 407.055 316.949 409.363 316.949C411.66 316.949 413.066 318.754 413.066 321.672V321.695C413.066 324.613 411.66 326.418 409.363 326.418Z" fill="#6C757D"/>
<defs>
<filter id="filter0_f_110_383" x="79" y="133" width="80" height="48" filterUnits="userSpaceOnUse" color-interpolation-filters="sRGB">
<feFlood flood-opacity="0" result="BackgroundImageFix"/>
<feBlend mode="normal" in="SourceGraphic" in2="BackgroundImageFix" result="shape"/>
<feGaussianBlur stdDeviation="2" result="effect1_foregroundBlur_110_383"/>
</filter>
<filter id="filter1_f_110_383" x="171" y="-2" width="132" height="106" filterUnits="userSpaceOnUse" color-interpolation-filters="sRGB">
<feFlood flood-opacity="0" result="BackgroundImageFix"/>
<feBlend mode="normal" in="SourceGraphic" in2="BackgroundImageFix" result="shape"/>
<feGaussianBlur stdDeviation="1" result="effect1_foregroundBlur_110_383"/>
</filter>
<filter id="filter2_f_110_383" x="182" y="62" width="351" height="123" filterUnits="userSpaceOnUse" color-interpolation-filters="sRGB">
<feFlood flood-opacity="0" result="BackgroundImageFix"/>
<feBlend mode="normal" in="SourceGraphic" in2="BackgroundImageFix" result="shape"/>
<feGaussianBlur stdDeviation="25" result="effect1_foregroundBlur_110_383"/>
</filter>
<filter id="filter3_d_110_383" x="243" y="10" width="229" height="229" filterUnits="userSpaceOnUse" color-interpolation-filters="sRGB">
<feFlood flood-opacity="0" result="BackgroundImageFix"/>
<feColorMatrix in="SourceAlpha" type="matrix" values="0 0 0 0 0 0 0 0 0 0 0 0 0 0 0 0 0 0 127 0" result="hardAlpha"/>
<feOffset/>
<feGaussianBlur stdDeviation="15"/>
<feColorMatrix type="matrix" values="0 0 0 0 1 0 0 0 0 0.694118 0 0 0 0 0.415686 0 0 0 1 0"/>
<feBlend mode="normal" in2="BackgroundImageFix" result="effect1_dropShadow_110_383"/>
<feBlend mode="normal" in="SourceGraphic" in2="effect1_dropShadow_110_383" result="shape"/>
</filter>
<linearGradient id="paint0_linear_110_383" x1="139.644" y1="146.014" x2="109.566" y2="183.975" gradientUnits="userSpaceOnUse">
<stop stop-color="#C7E9FF"/>
<stop offset="1" stop-color="#7ACBFF"/>
</linearGradient>
<linearGradient id="paint1_linear_110_383" x1="200.647" y1="40.9844" x2="254.308" y2="108.324" gradientUnits="userSpaceOnUse">
<stop stop-color="#C7E9FF"/>
<stop offset="1" stop-color="#7ACBFF"/>
</linearGradient>
<linearGradient id="paint2_linear_110_383" x1="227.293" y1="48.215" x2="270.748" y2="37.1265" gradientUnits="userSpaceOnUse">
<stop stop-color="#7ACBFF" stop-opacity="0"/>
<stop offset="1" stop-color="#2F73A0"/>
</linearGradient>
<linearGradient id="paint3_linear_110_383" x1="236.298" y1="87.4964" x2="236.298" y2="101.192" gradientUnits="userSpaceOnUse">
<stop stop-color="#7ACBFF" stop-opacity="0"/>
<stop offset="1" stop-color="#2F73A0"/>
</linearGradient>
<linearGradient id="paint4_linear_110_383" x1="202.788" y1="49.0134" x2="214.315" y2="63.6158" gradientUnits="userSpaceOnUse">
<stop stop-color="#EDF5FF"/>
<stop offset="1" stop-color="#C7E9FF" stop-opacity="0"/>
</linearGradient>
<linearGradient id="paint5_linear_110_383" x1="510.647" y1="63.1808" x2="563.014" y2="130.211" gradientUnits="userSpaceOnUse">
<stop stop-color="#C7E9FF"/>
<stop offset="1" stop-color="#7ACBFF"/>
</linearGradient>
<linearGradient id="paint6_linear_110_383" x1="537.293" y1="70.2695" x2="580.641" y2="58.9871" gradientUnits="userSpaceOnUse">
<stop stop-color="#7ACBFF" stop-opacity="0"/>
<stop offset="1" stop-color="#2F73A0"/>
</linearGradient>
<linearGradient id="paint7_linear_110_383" x1="546.298" y1="108.781" x2="546.298" y2="122.207" gradientUnits="userSpaceOnUse">
<stop stop-color="#7ACBFF" stop-opacity="0"/>
<stop offset="1" stop-color="#2F73A0"/>
</linearGradient>
<linearGradient id="paint8_linear_110_383" x1="512.788" y1="71.0523" x2="524.035" y2="85.5851" gradientUnits="userSpaceOnUse">
<stop stop-color="#EDF5FF"/>
<stop offset="1" stop-color="#C7E9FF" stop-opacity="0"/>
</linearGradient>
<radialGradient id="paint9_radial_110_383" cx="0" cy="0" r="1" gradientUnits="userSpaceOnUse" gradientTransform="translate(357.5 124.5) rotate(90) scale(84.5)">
<stop stop-color="#FFF584"/>
<stop offset="1" stop-color="#FFB667"/>
</radialGradient>
<radialGradient id="paint10_radial_110_383" cx="0" cy="0" r="1" gradientUnits="userSpaceOnUse" gradientTransform="translate(386.5 90) rotate(135) scale(108.894)">
<stop stop-color="#FFF584"/>
<stop offset="1" stop-color="#FFB667"/>
</radialGradient>
<clipPath id="clip0_110_383">
<rect x="273" y="40" width="169" height="169" rx="84.5" fill="white"/>
</clipPath>
</defs>
</svg>
