<svg width="125" height="125" viewBox="0 0 125 125" fill="none" xmlns="http://www.w3.org/2000/svg">
<g clip-path="url(#clip0_689_658)">
<path d="M34.8154 72.7968C54.0434 72.7968 69.6308 56.5007 69.6308 36.3984C69.6308 16.2961 54.0434 0 34.8154 0C15.5874 0 0 16.2961 0 36.3984C0 56.5007 15.5874 72.7968 34.8154 72.7968Z" fill="#4891FF"/>
<path d="M34.8154 125C54.0434 125 69.6308 108.704 69.6308 88.6015C69.6308 68.4992 54.0434 52.2031 34.8154 52.2031C15.5874 52.2031 0 68.4992 0 88.6015C0 108.704 15.5874 125 34.8154 125Z" fill="#4891FF"/>
<path d="M90.1845 72.7968C109.413 72.7968 125 56.5007 125 36.3984C125 16.2961 109.413 0 90.1845 0C70.9565 0 55.3691 16.2961 55.3691 36.3984C55.3691 56.5007 70.9565 72.7968 90.1845 72.7968Z" fill="#4891FF"/>
<path d="M90.1845 125C109.413 125 125 108.704 125 88.6015C125 68.4992 109.413 52.2031 90.1845 52.2031C70.9565 52.2031 55.3691 68.4992 55.3691 88.6015C55.3691 108.704 70.9565 125 90.1845 125Z" fill="#4891FF"/>
<path d="M69.2109 98.0282C88.4389 98.0282 104.026 81.7321 104.026 61.6298C104.026 41.5276 88.4389 25.2314 69.2109 25.2314C49.9829 25.2314 34.3955 41.5276 34.3955 61.6298C34.3955 81.7321 49.9829 98.0282 69.2109 98.0282Z" fill="#4891FF"/>
</g>
<defs>
<clipPath id="clip0_689_658">
<rect width="125" height="125" fill="white"/>
</clipPath>
</defs>
</svg>
