<svg width="27" height="27" viewBox="0 0 27 27" fill="none" xmlns="http://www.w3.org/2000/svg">
<path d="M18.0002 2.25C18.4086 4.7025 15.8492 6.55875 14.4182 7.39238C13.9963 7.63875 13.5193 7.32487 13.5924 6.84225C13.8366 5.22 14.7309 2.25 18.0002 2.25Z" stroke="black" stroke-width="1.5"/>
<path d="M10.125 7.3125C11.1341 7.3125 12.0262 7.5375 12.7057 7.785C13.583 8.09887 14.542 8.09887 15.4193 7.785C16.2454 7.47851 17.1188 7.31861 18 7.3125C19.2206 7.3125 20.7731 7.97513 21.9375 9.30038C18 12.375 19.125 17.4375 22.8026 18.7785C21.6281 22.0039 19.3961 24.1875 17.4364 24.1875C15.7489 24.1875 15.75 23.4 14.0625 23.4C12.375 23.4 12.375 24.1875 10.6875 24.1875C7.875 24.1875 4.5 19.6875 4.5 14.0625C4.5 9.5625 7.875 7.3125 10.125 7.3125Z" stroke="black" stroke-width="1.5"/>
</svg>
