<svg width="29" height="29" viewBox="0 0 29 29" fill="none" xmlns="http://www.w3.org/2000/svg">
<path d="M8.9233 0C8.03585 0 7.18474 0.35254 6.55721 0.980066C5.92969 1.60759 5.57715 2.4587 5.57715 3.34615V25.6538C5.57715 26.5413 5.92969 27.3924 6.55721 28.0199C7.18474 28.6475 8.03585 29 8.9233 29H21.1925C22.08 29 22.9311 28.6475 23.5586 28.0199C24.1861 27.3924 24.5387 26.5413 24.5387 25.6538V3.34615C24.5387 2.4587 24.1861 1.60759 23.5586 0.980066C22.9311 0.35254 22.08 0 21.1925 0L8.9233 0ZM13.9425 1.11538H16.1733C16.3212 1.11538 16.4631 1.17414 16.5677 1.27873C16.6722 1.38332 16.731 1.52517 16.731 1.67308C16.731 1.82099 16.6722 1.96284 16.5677 2.06742C16.4631 2.17201 16.3212 2.23077 16.1733 2.23077H13.9425C13.7946 2.23077 13.6528 2.17201 13.5482 2.06742C13.4436 1.96284 13.3848 1.82099 13.3848 1.67308C13.3848 1.52517 13.4436 1.38332 13.5482 1.27873C13.6528 1.17414 13.7946 1.11538 13.9425 1.11538ZM8.36561 3.34615H21.7502C21.8981 3.34615 22.04 3.40491 22.1446 3.5095C22.2492 3.61409 22.3079 3.75594 22.3079 3.90385V22.8654C22.3079 23.0133 22.2492 23.1551 22.1446 23.2597C22.04 23.3643 21.8981 23.4231 21.7502 23.4231H8.36561C8.2177 23.4231 8.07585 23.3643 7.97126 23.2597C7.86667 23.1551 7.80792 23.0133 7.80792 22.8654V3.90385C7.80792 3.75594 7.86667 3.61409 7.97126 3.5095C8.07585 3.40491 8.2177 3.34615 8.36561 3.34615ZM16.6618 8.92308C16.2012 8.95319 15.6859 9.23762 15.3713 9.62019C15.0858 9.96596 14.8259 10.4779 14.9185 10.9798C15.4215 10.9932 15.9424 10.7055 16.2436 10.3173C16.5246 9.95592 16.7399 9.44508 16.6618 8.92308ZM13.5588 10.9096C12.9008 10.9096 12.1903 11.3401 11.7463 12.025C11.1195 12.9864 11.2221 14.7677 12.2349 16.3125C12.5985 16.8635 13.1004 17.4915 13.734 17.4982C14.295 17.5037 14.4333 17.1535 15.1973 17.149C15.9614 17.1446 16.0975 17.5037 16.6618 17.4982C17.2931 17.4915 17.833 16.8289 18.1944 16.2779C18.4131 15.9477 18.5998 15.5974 18.7521 15.2317C17.2853 14.6773 17.0232 12.5748 18.4732 11.7807C18.0315 11.2297 17.4214 10.9107 16.8358 10.9107C16.0606 10.9107 15.7361 11.2933 15.1973 11.2933C14.6419 11.2933 14.2303 10.9096 13.5588 10.9096ZM15.0579 24.7838C15.8454 24.7838 16.4867 25.4252 16.4867 26.2127C16.4867 27.0001 15.8454 27.6415 15.0579 27.6415C14.6792 27.6409 14.3161 27.4901 14.0482 27.2223C13.7804 26.9545 13.6297 26.5914 13.6291 26.2127C13.6291 25.4252 14.2705 24.7838 15.0579 24.7838Z" fill="black"/>
</svg>
