<svg width="256" height="256" viewBox="0 0 256 256" fill="none" xmlns="http://www.w3.org/2000/svg">
<path d="M184 36H72C68.8174 36 65.7652 37.2643 63.5147 39.5147C61.2643 41.7652 60 44.8174 60 48V224C60.0004 224.714 60.1917 225.415 60.5543 226.03C60.9168 226.644 61.4373 227.151 62.0618 227.497C62.6862 227.843 63.3919 228.015 64.1055 227.997C64.8191 227.978 65.5147 227.768 66.12 227.39L128 188.72L189.89 227.39C190.523 227.786 191.254 227.998 192 228C192.678 227.998 193.345 227.826 193.94 227.5C194.565 227.154 195.085 226.646 195.447 226.031C195.809 225.415 196 224.714 196 224V48C196 44.8174 194.736 41.7652 192.485 39.5147C190.235 37.2643 187.183 36 184 36ZM188 216.78L130.11 180.61C129.474 180.213 128.74 180.002 127.99 180.002C127.24 180.002 126.506 180.213 125.87 180.61L68 216.78V48C68 46.9391 68.4214 45.9217 69.1716 45.1716C69.9217 44.4214 70.9391 44 72 44H184C185.061 44 186.078 44.4214 186.828 45.1716C187.579 45.9217 188 46.9391 188 48V216.78Z" fill="black"/>
</svg>
