<svg width="32" height="32" viewBox="0 0 32 32" fill="none" xmlns="http://www.w3.org/2000/svg">
<path d="M25.2199 1.41699H6.10995C5.24495 1.41699 4.54395 2.11899 4.54395 2.98299V28.296C4.54395 29.161 5.24395 29.861 6.10995 29.861H25.2199C26.0859 29.861 26.7859 29.161 26.7859 28.297V2.98399C26.7859 2.11899 26.0859 1.41699 25.2209 1.41699H25.2199ZM15.6669 29.3C15.5819 29.3048 15.4968 29.2922 15.4167 29.263C15.3367 29.2337 15.2635 29.1885 15.2016 29.13C15.1397 29.0715 15.0904 29.0009 15.0567 28.9227C15.023 28.8445 15.0056 28.7602 15.0056 28.675C15.0056 28.5898 15.023 28.5055 15.0567 28.4273C15.0904 28.349 15.1397 28.2785 15.2016 28.22C15.2635 28.1615 15.3367 28.1162 15.4167 28.087C15.4968 28.0578 15.5819 28.0452 15.6669 28.05C15.8251 28.061 15.9732 28.1315 16.0813 28.2474C16.1895 28.3633 16.2496 28.516 16.2496 28.6745C16.2496 28.833 16.1895 28.9856 16.0813 29.1016C15.9732 29.2175 15.8251 29.289 15.6669 29.3ZM24.3769 26.855C24.3767 26.9378 24.3436 27.0172 24.2849 27.0757C24.2262 27.1342 24.1468 27.167 24.0639 27.167H7.26995C7.18719 27.1667 7.10788 27.1338 7.04926 27.0754C6.99065 27.017 6.95747 26.9377 6.95694 26.855V4.29999C6.95694 4.12699 7.09695 3.98699 7.26995 3.98699H24.0619C24.2339 3.98699 24.3739 4.12699 24.3739 4.29999L24.3759 26.855H24.3769Z" fill="black"/>
</svg>
