<svg width="31" height="31" viewBox="0 0 31 31" fill="none" xmlns="http://www.w3.org/2000/svg">
<path d="M25.8333 23.25C27.2542 23.25 28.4037 22.0875 28.4037 20.6667L28.4167 6.45833C28.4167 5.0375 27.2542 3.875 25.8333 3.875H5.16667C3.74583 3.875 2.58333 5.0375 2.58333 6.45833V20.6667C2.58333 22.0875 3.74583 23.25 5.16667 23.25H0C0 24.6708 1.1625 25.8333 2.58333 25.8333H28.4167C29.8375 25.8333 31 24.6708 31 23.25H25.8333ZM5.16667 6.45833H25.8333V20.6667H5.16667V6.45833ZM15.5 24.5417C14.7896 24.5417 14.2083 23.9604 14.2083 23.25C14.2083 22.5396 14.7896 21.9583 15.5 21.9583C16.2104 21.9583 16.7917 22.5396 16.7917 23.25C16.7917 23.9604 16.2104 24.5417 15.5 24.5417Z" fill="black"/>
</svg>
