<svg width="351" height="229" viewBox="0 0 351 229" fill="none" xmlns="http://www.w3.org/2000/svg">
<g filter="url(#filter0_f_110_397)">
<path d="M300.5 113.5C300.5 113.698 300.392 113.966 300.017 114.305C299.644 114.641 299.06 114.997 298.246 115.361C296.622 116.089 294.196 116.802 291.032 117.488C284.711 118.857 275.545 120.094 264.196 121.134C241.505 123.213 210.146 124.5 175.5 124.5C140.854 124.5 109.495 123.213 86.8037 121.134C75.4551 120.094 66.2892 118.857 59.9683 117.488C56.8038 116.802 54.3782 116.089 52.7541 115.361C51.9402 114.997 51.356 114.641 50.9829 114.305C50.6079 113.966 50.5 113.698 50.5 113.5C50.5 113.302 50.6079 113.034 50.9829 112.695C51.356 112.359 51.9402 112.003 52.7541 111.639C54.3782 110.911 56.8038 110.198 59.9683 109.512C66.2892 108.143 75.4551 106.906 86.8037 105.866C109.495 103.787 140.854 102.5 175.5 102.5C210.146 102.5 241.505 103.787 264.196 105.866C275.545 106.906 284.711 108.143 291.032 109.512C294.196 110.198 296.622 110.911 298.246 111.639C299.06 112.003 299.644 112.359 300.017 112.695C300.392 113.034 300.5 113.302 300.5 113.5Z" stroke="black"/>
</g>
<g filter="url(#filter1_d_110_397)">
<g clip-path="url(#clip0_110_397)">
<rect x="91" y="30" width="169" height="169" rx="84.5" fill="url(#paint0_radial_110_397)"/>
<rect x="91" y="30" width="169" height="169" rx="84.5" fill="#FFF584"/>
<circle cx="185.5" cy="99.5" r="84.5" fill="url(#paint1_radial_110_397)"/>
</g>
</g>
<defs>
<filter id="filter0_f_110_397" x="0" y="52" width="351" height="123" filterUnits="userSpaceOnUse" color-interpolation-filters="sRGB">
<feFlood flood-opacity="0" result="BackgroundImageFix"/>
<feBlend mode="normal" in="SourceGraphic" in2="BackgroundImageFix" result="shape"/>
<feGaussianBlur stdDeviation="25" result="effect1_foregroundBlur_110_397"/>
</filter>
<filter id="filter1_d_110_397" x="61" y="0" width="229" height="229" filterUnits="userSpaceOnUse" color-interpolation-filters="sRGB">
<feFlood flood-opacity="0" result="BackgroundImageFix"/>
<feColorMatrix in="SourceAlpha" type="matrix" values="0 0 0 0 0 0 0 0 0 0 0 0 0 0 0 0 0 0 127 0" result="hardAlpha"/>
<feOffset/>
<feGaussianBlur stdDeviation="15"/>
<feColorMatrix type="matrix" values="0 0 0 0 1 0 0 0 0 0.694118 0 0 0 0 0.415686 0 0 0 1 0"/>
<feBlend mode="normal" in2="BackgroundImageFix" result="effect1_dropShadow_110_397"/>
<feBlend mode="normal" in="SourceGraphic" in2="effect1_dropShadow_110_397" result="shape"/>
</filter>
<radialGradient id="paint0_radial_110_397" cx="0" cy="0" r="1" gradientUnits="userSpaceOnUse" gradientTransform="translate(175.5 114.5) rotate(90) scale(84.5)">
<stop stop-color="#FFF584"/>
<stop offset="1" stop-color="#FFB667"/>
</radialGradient>
<radialGradient id="paint1_radial_110_397" cx="0" cy="0" r="1" gradientUnits="userSpaceOnUse" gradientTransform="translate(204.5 80) rotate(135) scale(108.894)">
<stop stop-color="#FFF584"/>
<stop offset="1" stop-color="#FFB667"/>
</radialGradient>
<clipPath id="clip0_110_397">
<rect x="91" y="30" width="169" height="169" rx="84.5" fill="white"/>
</clipPath>
</defs>
</svg>
